<svg width="20" height="18" viewBox="0 0 20 18" fill="none" xmlns="http://www.w3.org/2000/svg">
<path d="M9.99889 5L9.99707 9.37258C9.99707 9.5386 10.063 9.69729 10.1802 9.81447L13.3082 12.9419L14.192 12.0581L11.247 9.11377L11.2489 5H9.99889Z" fill="#252525"/>
<path d="M11.25 0C6.85069 0 3.2097 3.26722 2.59989 7.50001H0L3.125 10.625L6.25 7.50001H3.8629C4.46083 3.95859 7.54098 1.25001 11.25 1.25001C15.3857 1.25001 18.75 4.61426 18.75 8.75002C18.75 12.8858 15.3858 16.25 11.25 16.25C8.92519 16.25 6.76944 15.1978 5.33569 13.3631L4.35059 14.1321C6.02293 16.272 8.53759 17.5 11.25 17.5C16.0748 17.5 20 13.5742 20 8.75002C20 3.92582 16.0748 3.62891e-05 11.25 0Z" fill="#252525"/>
</svg>
