<svg width="30" height="25" viewBox="0 0 30 25" fill="none" xmlns="http://www.w3.org/2000/svg">
<path d="M25.3263 24.8199H24.3132C23.1942 24.8199 22.2871 23.9127 22.2871 22.7937C22.2871 21.6748 23.1942 20.7676 24.3132 20.7676H25.3263C26.4453 20.7676 27.3524 21.6748 27.3524 22.7937C27.3524 23.9127 26.4453 24.8199 25.3263 24.8199Z" fill="#CD3232"/>
<path d="M26.3393 20.7676H9.11737C8.83764 20.7676 8.61084 20.5408 8.61084 20.2611C8.61084 17.4681 10.8831 15.1958 13.6761 15.1958H17.2218C17.5015 15.1958 17.7283 15.4226 17.7283 15.7024C17.7283 15.9821 17.5015 16.2089 17.2218 16.2089H13.6761C11.6133 16.2089 9.90546 17.7584 9.65543 19.7546H26.3393C26.619 19.7546 26.8458 19.9814 26.8458 20.2611C26.8458 20.5408 26.6191 20.7676 26.3393 20.7676Z" fill="#32283C"/>
<path d="M26.3395 20.7676H3.03924C2.75951 20.7676 2.53271 20.5408 2.53271 20.2611C2.53271 17.4681 4.805 15.1958 7.59799 15.1958H11.1437C11.4234 15.1958 11.6502 15.4226 11.6502 15.7024C11.6502 15.9821 11.4234 16.2089 11.1437 16.2089H7.59799C5.53516 16.2089 3.82734 17.7584 3.5773 19.7546H26.3395C26.6192 19.7546 26.846 19.9814 26.846 20.2611C26.846 20.5408 26.6193 20.7676 26.3395 20.7676Z" fill="#463C4B"/>
<path d="M10.8941 1.86592L11.6228 4.05222H12.6907L11.8551 1.54555C11.6479 0.9241 11.0686 0.506531 10.4135 0.506531H8.10449V1.51959H10.4135C10.6319 1.51959 10.825 1.65875 10.8941 1.86592Z" fill="#32283C"/>
<path d="M9.62395 2.02611H8.10436C7.54484 2.02611 7.09131 1.57258 7.09131 1.01306C7.09131 0.453532 7.54484 0 8.10436 0H9.62395C10.1835 0 10.637 0.453532 10.637 1.01306C10.637 1.57258 10.1835 2.02611 9.62395 2.02611Z" fill="#32283C"/>
<path d="M5.60524 4.06989L4.76383 1.54555C4.5566 0.9241 3.97726 0.506531 3.32219 0.506531H1.01318V1.51959H3.32219C3.54057 1.51959 3.73368 1.65875 3.80276 1.86592L4.80226 4.8645C4.88223 4.47226 5.1928 4.14739 5.60524 4.06989Z" fill="#463C4B"/>
<path d="M10.5752 5.38568L13.7212 14.8236C13.9969 15.6508 14.7712 16.2089 15.6433 16.2089H24.8793C25.7514 16.2089 26.5256 15.6508 26.8014 14.8235L29.9474 5.38562C30.1661 4.7296 29.6778 4.05219 28.9864 4.05219H11.5363C10.8448 4.05225 10.3566 4.72967 10.5752 5.38568Z" fill="#CD3232"/>
<path d="M5.83449 5.38568L8.98047 14.8236C9.25627 15.6508 10.0305 16.2089 10.9026 16.2089H20.1386C21.0107 16.2089 21.7849 15.6508 22.0607 14.8235L25.2067 5.38562C25.4253 4.7296 24.9371 4.05219 24.2456 4.05219H6.79556C6.10409 4.05225 5.61586 4.72967 5.83449 5.38568Z" fill="#FF4646"/>
<path d="M19.0792 9.11754H18.0661C17.7864 9.11754 17.5596 8.89074 17.5596 8.61101V6.5849C17.5596 6.30517 17.7864 6.07837 18.0661 6.07837H19.0792C19.3589 6.07837 19.5857 6.30517 19.5857 6.5849V8.61101C19.5857 8.89074 19.3589 9.11754 19.0792 9.11754Z" fill="#E6E6EB"/>
<path d="M15.0269 9.11754H14.0139C13.7341 9.11754 13.5073 8.89074 13.5073 8.61101V6.5849C13.5073 6.30517 13.7341 6.07837 14.0139 6.07837H15.0269C15.3066 6.07837 15.5334 6.30517 15.5334 6.5849V8.61101C15.5334 8.89074 15.3066 9.11754 15.0269 9.11754Z" fill="#E6E6EB"/>
<path d="M10.9747 9.1175H9.96161C9.68188 9.1175 9.45508 8.89071 9.45508 8.61098V6.58487C9.45508 6.30514 9.68188 6.07834 9.96161 6.07834H10.9747C11.2544 6.07834 11.4812 6.30514 11.4812 6.58487V8.61098C11.4812 8.89071 11.2544 9.1175 10.9747 9.1175Z" fill="#E6E6EB"/>
<path d="M19.0792 14.1828H18.0661C17.7864 14.1828 17.5596 13.956 17.5596 13.6763V11.6502C17.5596 11.3705 17.7864 11.1437 18.0661 11.1437H19.0792C19.3589 11.1437 19.5857 11.3705 19.5857 11.6502V13.6763C19.5857 13.956 19.3589 14.1828 19.0792 14.1828Z" fill="#E6E6EB"/>
<path d="M15.0269 14.1828H14.0139C13.7341 14.1828 13.5073 13.956 13.5073 13.6763V11.6502C13.5073 11.3705 13.7341 11.1437 14.0139 11.1437H15.0269C15.3066 11.1437 15.5334 11.3705 15.5334 11.6502V13.6763C15.5334 13.956 15.3066 14.1828 15.0269 14.1828Z" fill="#E6E6EB"/>
<path d="M10.9747 14.1828H9.96161C9.68188 14.1828 9.45508 13.956 9.45508 13.6763V11.6501C9.45508 11.3704 9.68188 11.1436 9.96161 11.1436H10.9747C11.2544 11.1436 11.4812 11.3704 11.4812 11.6501V13.6763C11.4812 13.956 11.2544 14.1828 10.9747 14.1828Z" fill="#E6E6EB"/>
<path d="M2.53264 2.02611H1.01306C0.453532 2.02611 0 1.57258 0 1.01306C0 0.453532 0.453532 0 1.01306 0H2.53264C3.09216 0 3.54569 0.453532 3.54569 1.01306C3.54569 1.57258 3.09216 2.02611 2.53264 2.02611Z" fill="#FF4646"/>
<path d="M24.3132 24.8199C25.4322 24.8199 26.3393 23.9127 26.3393 22.7937C26.3393 21.6748 25.4322 20.7676 24.3132 20.7676C23.1942 20.7676 22.2871 21.6748 22.2871 22.7937C22.2871 23.9127 23.1942 24.8199 24.3132 24.8199Z" fill="#FF4646"/>
<path d="M24.3133 23.8068C24.8728 23.8068 25.3264 23.3532 25.3264 22.7937C25.3264 22.2342 24.8728 21.7807 24.3133 21.7807C23.7539 21.7807 23.3003 22.2342 23.3003 22.7937C23.3003 23.3532 23.7539 23.8068 24.3133 23.8068Z" fill="#E6E6EB"/>
<path d="M5.57188 24.8199H4.55883C3.43984 24.8199 2.53271 23.9127 2.53271 22.7937C2.53271 21.6748 3.43984 20.7676 4.55883 20.7676H5.57188C6.69086 20.7676 7.59799 21.6748 7.59799 22.7937C7.59799 23.9127 6.69086 24.8199 5.57188 24.8199Z" fill="#CD3232"/>
<path d="M4.55883 24.8199C5.67782 24.8199 6.58494 23.9127 6.58494 22.7937C6.58494 21.6748 5.67782 20.7676 4.55883 20.7676C3.43984 20.7676 2.53271 21.6748 2.53271 22.7937C2.53271 23.9127 3.43984 24.8199 4.55883 24.8199Z" fill="#FF4646"/>
<path d="M4.55895 23.8068C5.11845 23.8068 5.57201 23.3532 5.57201 22.7937C5.57201 22.2342 5.11845 21.7807 4.55895 21.7807C3.99946 21.7807 3.5459 22.2342 3.5459 22.7937C3.5459 23.3532 3.99946 23.8068 4.55895 23.8068Z" fill="#E6E6EB"/>
</svg>
