<svg width="18" height="15" viewBox="0 0 18 15" fill="none" xmlns="http://www.w3.org/2000/svg">
<path d="M15.1956 14.8919H14.5877C13.9163 14.8919 13.3721 14.3476 13.3721 13.6762C13.3721 13.0048 13.9163 12.4606 14.5877 12.4606H15.1956C15.867 12.4606 16.4112 13.0048 16.4112 13.6762C16.4112 14.3476 15.867 14.8919 15.1956 14.8919Z" fill="white"/>
<path d="M15.8041 12.4605H5.47091C5.30307 12.4605 5.16699 12.3244 5.16699 12.1566C5.16699 10.4808 6.53036 9.11743 8.20616 9.11743H10.3336C10.5014 9.11743 10.6375 9.25351 10.6375 9.42135C10.6375 9.58919 10.5014 9.72526 10.3336 9.72526H8.20616C6.96846 9.72526 5.94377 10.655 5.79374 11.8527H15.8041C15.9719 11.8527 16.108 11.9888 16.108 12.1566C16.108 12.3244 15.9719 12.4605 15.8041 12.4605Z" fill="white"/>
<path d="M15.8036 12.4605H1.82345C1.65561 12.4605 1.51953 12.3244 1.51953 12.1566C1.51953 10.4808 2.8829 9.11743 4.5587 9.11743H6.68611C6.85395 9.11743 6.99003 9.25351 6.99003 9.42135C6.99003 9.58919 6.85395 9.72526 6.68611 9.72526H4.5587C3.321 9.72526 2.2963 10.655 2.14628 11.8527H15.8036C15.9714 11.8527 16.1075 11.9888 16.1075 12.1566C16.1075 12.3244 15.9715 12.4605 15.8036 12.4605Z" fill="white"/>
<path d="M6.53605 1.11947L6.97331 2.43125H7.614L7.11269 0.927242C6.98835 0.554374 6.64075 0.303833 6.24771 0.303833H4.8623V0.911666H6.24771C6.37873 0.911666 6.4946 0.995167 6.53605 1.11947Z" fill="white"/>
<path d="M5.77447 1.21567H4.86272C4.527 1.21567 4.25488 0.943547 4.25488 0.607833C4.25488 0.272119 4.527 0 4.86272 0H5.77447C6.11018 0 6.3823 0.272119 6.3823 0.607833C6.3823 0.943547 6.11018 1.21567 5.77447 1.21567Z" fill="white"/>
<path d="M3.36265 2.44185L2.85781 0.927242C2.73347 0.554374 2.38587 0.303833 1.99283 0.303833H0.607422V0.911666H1.99283C2.12385 0.911666 2.23972 0.995167 2.28117 1.11947L2.88087 2.91862C2.92885 2.68327 3.11519 2.48835 3.36265 2.44185Z" fill="white"/>
<path d="M6.34513 3.23149L8.23272 8.89422C8.39816 9.39059 8.86273 9.72543 9.386 9.72543H14.9276C15.4508 9.72543 15.9154 9.39059 16.0809 8.89418L17.9685 3.23146C18.0996 2.83785 17.8067 2.4314 17.3918 2.4314H6.92177C6.50689 2.43143 6.21395 2.83788 6.34513 3.23149Z" fill="white"/>
<path d="M3.5004 3.23149L5.38799 8.89422C5.55347 9.39059 6.01801 9.72543 6.54128 9.72543H12.0829C12.6061 9.72543 13.0707 9.39059 13.2361 8.89418L15.1237 3.23146C15.2549 2.83785 14.962 2.4314 14.5471 2.4314H4.07705C3.66216 2.43143 3.36922 2.83788 3.5004 3.23149Z" fill="white"/>
<path d="M11.4469 5.47047H10.8391C10.6712 5.47047 10.5352 5.33439 10.5352 5.16656V3.95089C10.5352 3.78305 10.6712 3.64697 10.8391 3.64697H11.4469C11.6147 3.64697 11.7508 3.78305 11.7508 3.95089V5.16656C11.7508 5.33439 11.6147 5.47047 11.4469 5.47047Z" fill="white"/>
<path d="M9.01624 5.47047H8.40841C8.24057 5.47047 8.10449 5.33439 8.10449 5.16656V3.95089C8.10449 3.78305 8.24057 3.64697 8.40841 3.64697H9.01624C9.18408 3.64697 9.32016 3.78305 9.32016 3.95089V5.16656C9.32016 5.33439 9.18408 5.47047 9.01624 5.47047Z" fill="white"/>
<path d="M6.5846 5.47047H5.97677C5.80893 5.47047 5.67285 5.33439 5.67285 5.16656V3.95089C5.67285 3.78305 5.80893 3.64697 5.97677 3.64697H6.5846C6.75244 3.64697 6.88852 3.78305 6.88852 3.95089V5.16656C6.88852 5.33439 6.75244 5.47047 6.5846 5.47047Z" fill="white"/>
<path d="M11.4469 8.50978H10.8391C10.6712 8.50978 10.5352 8.3737 10.5352 8.20586V6.9902C10.5352 6.82236 10.6712 6.68628 10.8391 6.68628H11.4469C11.6147 6.68628 11.7508 6.82236 11.7508 6.9902V8.20586C11.7508 8.3737 11.6147 8.50978 11.4469 8.50978Z" fill="white"/>
<path d="M9.01624 8.50978H8.40841C8.24057 8.50978 8.10449 8.3737 8.10449 8.20586V6.9902C8.10449 6.82236 8.24057 6.68628 8.40841 6.68628H9.01624C9.18408 6.68628 9.32016 6.82236 9.32016 6.9902V8.20586C9.32016 8.3737 9.18408 8.50978 9.01624 8.50978Z" fill="white"/>
<path d="M6.5846 8.50966H5.97677C5.80893 8.50966 5.67285 8.37358 5.67285 8.20574V6.99007C5.67285 6.82224 5.80893 6.68616 5.97677 6.68616H6.5846C6.75244 6.68616 6.88852 6.82224 6.88852 6.99007V8.20574C6.88852 8.37358 6.75244 8.50966 6.5846 8.50966Z" fill="white"/>
<path d="M1.51958 1.21567H0.607833C0.272119 1.21567 0 0.943547 0 0.607833C0 0.272119 0.272119 0 0.607833 0H1.51958C1.8553 0 2.12742 0.272119 2.12742 0.607833C2.12742 0.943547 1.8553 1.21567 1.51958 1.21567Z" fill="white"/>
<path d="M14.5877 14.8919C15.2591 14.8919 15.8034 14.3476 15.8034 13.6762C15.8034 13.0048 15.2591 12.4606 14.5877 12.4606C13.9163 12.4606 13.3721 13.0048 13.3721 13.6762C13.3721 14.3476 13.9163 14.8919 14.5877 14.8919Z" fill="white"/>
<path d="M14.5883 14.284C14.924 14.284 15.1961 14.0119 15.1961 13.6762C15.1961 13.3405 14.924 13.0684 14.5883 13.0684C14.2526 13.0684 13.9805 13.3405 13.9805 13.6762C13.9805 14.0119 14.2526 14.284 14.5883 14.284Z" fill="white"/>
<path d="M3.34303 14.8919H2.7352C2.06381 14.8919 1.51953 14.3476 1.51953 13.6762C1.51953 13.0048 2.06381 12.4606 2.7352 12.4606H3.34303C4.01442 12.4606 4.5587 13.0048 4.5587 13.6762C4.5587 14.3476 4.01442 14.8919 3.34303 14.8919Z" fill="white"/>
<path d="M2.7352 14.8919C3.40659 14.8919 3.95086 14.3476 3.95086 13.6762C3.95086 13.0048 3.40659 12.4606 2.7352 12.4606C2.0638 12.4606 1.51953 13.0048 1.51953 13.6762C1.51953 14.3476 2.0638 14.8919 2.7352 14.8919Z" fill="white"/>
<path d="M2.73479 14.284C3.07048 14.284 3.34262 14.0119 3.34262 13.6762C3.34262 13.3405 3.07048 13.0684 2.73479 13.0684C2.39909 13.0684 2.12695 13.3405 2.12695 13.6762C2.12695 14.0119 2.39909 14.284 2.73479 14.284Z" fill="white"/>
</svg>
