<svg width="20" height="19" viewBox="0 0 20 19" fill="none" xmlns="http://www.w3.org/2000/svg">
<path d="M14.1695 0C13.237 0 12.3457 0.213773 11.5205 0.635423C10.9588 0.922392 10.4428 1.30367 10 1.75604C9.5572 1.30367 9.0412 0.922392 8.47946 0.635423C7.65423 0.213773 6.76297 0 5.83043 0C2.61555 0 0 2.61555 0 5.83047C0 8.10755 1.2026 10.526 3.57435 13.0187C5.55464 15.1 7.97913 16.8349 9.66429 17.9238L10 18.1408L10.3357 17.9238C12.0209 16.8349 14.4454 15.1 16.4257 13.0187C18.7974 10.526 20 8.10755 20 5.83047C20 2.61555 17.3845 0 14.1695 0ZM15.5294 12.1659C13.7596 14.0259 11.6038 15.6072 10 16.6655C8.39616 15.6072 6.24037 14.0259 4.4706 12.1659C2.32499 9.91097 1.23711 7.77942 1.23711 5.83047C1.23711 3.29769 3.29769 1.23711 5.83047 1.23711C7.28866 1.23711 8.62817 1.90693 9.50544 3.07476L10 3.73311L10.4946 3.07476C11.3718 1.90693 12.7113 1.23711 14.1695 1.23711C16.7023 1.23711 18.7629 3.29769 18.7629 5.83047C18.7629 7.77942 17.675 9.91097 15.5294 12.1659Z" fill="#252525"/>
</svg>
