<svg width="18" height="20" viewBox="0 0 18 20" fill="none" xmlns="http://www.w3.org/2000/svg">
<path d="M14.7737 2.53479C13.1392 0.900116 10.9659 0 8.65433 0C6.34262 0 4.16931 0.900269 2.53479 2.53479C0.900269 4.16931 0 6.34262 0 8.65417C0 10.9659 0.900269 13.1392 2.53479 14.7737L7.13257 19.3716C7.53784 19.7768 8.07816 20 8.65417 20C9.23004 20 9.77036 19.7768 10.1756 19.3716L14.7737 14.7737C16.4084 13.1392 17.3085 10.9659 17.3085 8.65417C17.3085 6.34262 16.4082 4.16931 14.7737 2.53479ZM13.9452 13.945L9.34692 18.5431C9.16321 18.7268 8.91708 18.8281 8.65417 18.8281C8.39127 18.8281 8.14514 18.7268 7.96127 18.5431L3.36349 13.945C1.95023 12.5319 1.17188 10.6528 1.17188 8.65417C1.17188 6.65558 1.95023 4.77661 3.36349 3.36334C4.77676 1.95023 6.65558 1.17188 8.65433 1.17188C10.6529 1.17188 12.5319 1.95023 13.9452 3.36334C16.8625 6.28082 16.8625 11.0278 13.9452 13.945Z" fill="#252525"/>
<path d="M8.65408 5.55786C6.94662 5.55786 5.55762 6.94687 5.55762 8.65433C5.55762 10.3616 6.94662 11.7506 8.65408 11.7506C10.3614 11.7506 11.7504 10.3616 11.7504 8.65433C11.7504 6.94687 10.3614 5.55786 8.65408 5.55786ZM8.65408 10.5788C7.59283 10.5788 6.72949 9.71542 6.72949 8.65417C6.72949 7.59308 7.59283 6.72974 8.65408 6.72974C9.71518 6.72974 10.5785 7.59308 10.5785 8.65417C10.5785 9.71542 9.71518 10.5788 8.65408 10.5788Z" fill="#252525"/>
</svg>
