<svg width="18" height="20" viewBox="0 0 18 20" fill="none" xmlns="http://www.w3.org/2000/svg">
<path d="M16.7466 3.45356C13.9948 2.69957 11.2269 1.52555 8.74205 0.0584471C8.61006 -0.0194824 8.44627 -0.0194824 8.31432 0.0584471C5.75776 1.5677 3.13941 2.67821 0.30953 3.45356C0.126718 3.5036 0 3.66977 0 3.85934V8.158C0 12.5847 2.04214 15.5148 3.75534 17.1934C5.59971 19.0006 7.74815 20 8.52818 20C9.30814 20 11.4566 19.0006 13.3009 17.1934C15.0141 15.5149 17.0561 12.5847 17.0561 8.158V3.8593C17.0561 3.66977 16.9294 3.5036 16.7466 3.45356ZM16.2147 8.15796C16.2147 12.2924 14.31 15.0266 12.712 16.5923C10.8983 18.3695 8.95916 19.1585 8.52818 19.1585C8.09721 19.1585 6.15792 18.3695 4.34417 16.5923C2.74624 15.0266 0.841443 12.2924 0.841443 8.15796V4.17867C3.54761 3.41031 6.06784 2.33801 8.52826 0.908211C10.9272 2.30008 13.5732 3.4257 16.2147 4.17852V8.15796Z" fill="#EE5126"/>
<path d="M4.79925 4.13162C4.71409 3.91541 4.46984 3.8092 4.25359 3.8944C3.50203 4.19053 2.73062 4.46311 1.96082 4.70459C1.78539 4.75967 1.66602 4.92217 1.66602 5.106V6.73064C1.66602 6.96299 1.85441 7.15134 2.08672 7.15134C2.31902 7.15134 2.50742 6.96299 2.50742 6.73064V5.41346C3.198 5.19002 3.88785 4.94287 4.56202 4.67721C4.77823 4.59209 4.88445 4.34783 4.79925 4.13162Z" fill="#EE5126"/>
<path d="M5.59842 4.2114C5.65487 4.2114 5.71217 4.20003 5.76713 4.17605L5.77487 4.17269C5.98772 4.07941 6.08358 3.83163 5.9903 3.61886C5.89694 3.40601 5.64776 3.30972 5.43514 3.40292L5.42834 3.40585C5.21538 3.49886 5.1192 3.74644 5.21221 3.95933C5.28123 4.11737 5.43612 4.2114 5.59842 4.2114Z" fill="#EE5126"/>
<path d="M13.5407 13.5657C13.3463 13.4387 13.0856 13.4933 12.9583 13.6878C12.6116 14.2184 12.2049 14.7266 11.7493 15.1979C11.3746 15.5855 10.9686 15.9468 10.5425 16.2716C10.3578 16.4124 10.3223 16.6764 10.4631 16.8612C10.5459 16.9698 10.6712 17.0269 10.7979 17.0269C10.8869 17.0269 10.9766 16.9988 11.0527 16.9407C11.5123 16.5902 11.9502 16.2007 12.3542 15.7828C12.8468 15.2732 13.287 14.7232 13.6627 14.148C13.7899 13.9535 13.7352 13.6928 13.5407 13.5657Z" fill="#EE5126"/>
<path d="M9.5657 16.9314L9.54156 16.9456C9.34051 17.062 9.2718 17.3194 9.3882 17.5204C9.46621 17.6552 9.60742 17.7304 9.75269 17.7304C9.82418 17.7304 9.89676 17.7122 9.96305 17.6737L9.9909 17.6573C10.1914 17.5399 10.2587 17.2822 10.1413 17.0817C10.0238 16.8813 9.76609 16.814 9.5657 16.9314Z" fill="#EE5126"/>
<path d="M5.66036 9.14134C5.40204 8.88298 5.05848 8.74079 4.69309 8.74079C4.3277 8.74079 3.98411 8.88302 3.72567 9.14134C3.19235 9.67477 3.19235 10.5427 3.72567 11.0761L6.20989 13.5603C6.46824 13.8186 6.8118 13.9608 7.17723 13.9608C7.54266 13.9608 7.88621 13.8186 8.14461 13.5602L13.3306 8.37419C13.8639 7.84064 13.8639 6.97279 13.3305 6.43955C13.0721 6.18119 12.7286 6.039 12.3631 6.039C11.9977 6.039 11.6541 6.18123 11.3957 6.43955L7.17719 10.6581L5.66036 9.14134ZM11.9907 7.03455C12.0901 6.93513 12.2224 6.88041 12.3632 6.88041C12.5039 6.88041 12.6361 6.93513 12.7356 7.03455C12.9409 7.23982 12.9409 7.57396 12.7355 7.77931L7.54965 12.9652C7.45023 13.0646 7.31793 13.1194 7.17723 13.1194C7.03652 13.1194 6.90422 13.0646 6.80477 12.9652L4.32063 10.4812C4.11528 10.2758 4.11528 9.94169 4.32055 9.73641C4.42001 9.637 4.55231 9.5822 4.69305 9.5822C4.8338 9.5822 4.96602 9.63692 5.06543 9.73634L6.87969 11.5506C6.95863 11.6295 7.06559 11.6738 7.17719 11.6738C7.28879 11.6738 7.39574 11.6295 7.47461 11.5506L11.9907 7.03455Z" fill="#EE5126"/>
</svg>
