<svg width="20" height="20" viewBox="0 0 20 20" fill="none" xmlns="http://www.w3.org/2000/svg">
<path d="M19.3745 9.37472H11.458C11.113 9.37472 10.833 9.09473 10.833 8.74974C10.833 8.40475 11.113 8.12476 11.458 8.12476H19.3745C19.7195 8.12476 19.9994 8.40475 19.9994 8.74974C19.9994 9.09473 19.7195 9.37472 19.3745 9.37472Z" fill="#252525"/>
<path d="M16.2493 12.4997C16.0893 12.4997 15.9294 12.4388 15.8076 12.3164C15.5635 12.0721 15.5635 11.6763 15.8076 11.4322L18.4909 8.74903L15.8076 6.0657C15.5635 5.82156 15.5635 5.42576 15.8076 5.18163C16.0519 4.93734 16.4477 4.93734 16.6918 5.18163L19.8167 8.30653C20.0609 8.55067 20.0609 8.94647 19.8167 9.1906L16.6918 12.3155C16.5693 12.4388 16.4094 12.4997 16.2493 12.4997Z" fill="#252525"/>
<path d="M6.66652 19.9994C6.48815 19.9994 6.31893 19.9744 6.14987 19.9219L1.13491 18.2511C0.452562 18.0128 0 17.3769 0 16.6662V1.66667C0 0.747506 0.747506 0 1.66667 0C1.84488 0 2.0141 0.0250237 2.18331 0.0775123L7.19812 1.7483C7.88062 1.98663 8.33303 2.62245 8.33303 3.33318V18.3327C8.33303 19.2519 7.58568 19.9994 6.66652 19.9994ZM1.66667 1.24996C1.43749 1.24996 1.24996 1.43749 1.24996 1.66667V16.6662C1.24996 16.8437 1.36913 17.0086 1.53911 17.0678L6.53056 18.7311C6.56642 18.7427 6.61311 18.7494 6.66652 18.7494C6.8957 18.7494 7.08307 18.5619 7.08307 18.3327V3.33318C7.08307 3.15573 6.9639 2.99079 6.79392 2.93158L1.80247 1.26827C1.76661 1.25668 1.71992 1.24996 1.66667 1.24996Z" fill="#252525"/>
<path d="M12.7077 6.66652C12.3627 6.66652 12.0827 6.38653 12.0827 6.04154V2.29165C12.0827 1.71748 11.6154 1.24996 11.0412 1.24996H1.66649C1.32149 1.24996 1.0415 0.969972 1.0415 0.624981C1.0415 0.27999 1.32149 0 1.66649 0H11.0412C12.3054 0 13.3327 1.0275 13.3327 2.29165V6.04154C13.3327 6.38653 13.0527 6.66652 12.7077 6.66652Z" fill="#252525"/>
<path d="M11.0413 17.4995H7.70799C7.363 17.4995 7.08301 17.2195 7.08301 16.8745C7.08301 16.5296 7.363 16.2496 7.70799 16.2496H11.0413C11.6155 16.2496 12.0829 15.782 12.0829 15.2079V11.458C12.0829 11.113 12.3628 10.833 12.7078 10.833C13.0528 10.833 13.3328 11.113 13.3328 11.458V15.2079C13.3328 16.472 12.3055 17.4995 11.0413 17.4995Z" fill="#252525"/>
</svg>
