<svg width="36" height="30" viewBox="0 0 36 30" fill="none" xmlns="http://www.w3.org/2000/svg">
<path d="M11.4972 13.5958C10.6125 13.3411 9.72771 13.2118 8.86707 13.2118C7.53805 13.2118 6.42908 13.5155 5.5692 13.8875C6.39819 10.8526 8.38964 5.61603 12.3567 5.02631C12.7241 4.97168 13.0252 4.70602 13.1254 4.34843L13.9925 1.24725C14.0656 0.98499 14.0223 0.704264 13.8727 0.476669C13.7231 0.249074 13.4827 0.0972178 13.2132 0.0602901C12.9205 0.0203479 12.622 0 12.3262 0C7.56442 0 2.8486 4.97017 0.858652 12.0867C-0.30947 16.2618 -0.651993 22.5387 2.22535 26.4896C3.83548 28.7004 6.18453 29.8809 9.20733 29.9989C9.21977 29.9992 9.23182 29.9996 9.24426 29.9996C12.974 29.9996 16.2812 27.4878 17.2873 23.8919C17.8884 21.7421 17.6167 19.4877 16.5217 17.5422C15.4383 15.6185 13.6541 14.2164 11.4972 13.5958Z" fill="#EE5126"/>
<path d="M34.8443 17.5425C33.761 15.6185 31.9768 14.2164 29.8199 13.5958C28.9351 13.3411 28.0504 13.2118 27.1901 13.2118C25.8611 13.2118 24.7517 13.5155 23.8919 13.8875C24.7208 10.8526 26.7123 5.61603 30.6798 5.02631C31.0472 4.97168 31.3479 4.70602 31.4485 4.34843L32.3155 1.24725C32.3886 0.98499 32.3453 0.704264 32.1957 0.476669C32.0465 0.249074 31.8061 0.0972178 31.5363 0.0602901C31.2439 0.0203479 30.9454 0 30.6493 0C25.8875 0 21.1716 4.97017 19.1813 12.0867C18.0136 16.2618 17.671 22.5387 20.5488 26.4904C22.1585 28.7007 24.5079 29.8817 27.5304 29.9992C27.5428 29.9996 27.5549 30 27.5677 30C31.297 30 34.6047 27.4882 35.6108 23.8922C36.211 21.7425 35.939 19.4877 34.8443 17.5425Z" fill="#EE5126"/>
</svg>
