<svg width="505.957" height="73.34" viewBox="0 0 505.957 73.34" xmlns="http://www.w3.org/2000/svg"><g id="svgGroup" stroke-linecap="round" fill-rule="evenodd" font-size="9pt" stroke="#000" stroke-width="0.25mm" fill="black" style="stroke:#000;stroke-width:0.25mm;fill:black"><path d="M 280.762 22.363 L 287.402 21.777 Q 292.285 34.961 297.363 70.898 Q 295.703 71.289 294.043 71.289 A 10.76 10.76 0 0 1 292.772 71.208 Q 291.785 71.091 290.625 70.801 A 67.236 67.236 0 0 1 289.908 67.603 Q 288.782 62.036 287.354 51.855 Q 285.6 39.355 284.219 33.563 A 51.301 51.301 0 0 0 283.984 32.617 A 68.034 68.034 0 0 0 281.384 37.341 Q 277.266 45.47 271.362 60.637 A 605.041 605.041 0 0 0 271.094 61.328 A 32.815 32.815 0 0 0 270.692 61.389 Q 269.986 61.498 268.701 61.719 A 33.328 33.328 0 0 1 267.899 61.847 Q 267.047 61.971 266.463 62.002 A 6.761 6.761 0 0 1 266.113 62.012 A 9.788 9.788 0 0 1 265.176 61.963 Q 264.718 61.919 264.207 61.835 A 19.171 19.171 0 0 1 263.574 61.719 A 159.896 159.896 0 0 1 262.698 59.415 Q 261.243 55.505 258.936 48.877 A 526.859 526.859 0 0 0 257.474 44.73 Q 256.045 40.733 254.941 37.891 A 120.847 120.847 0 0 0 254.004 35.547 A 534.726 534.726 0 0 0 249.756 46.777 Q 245.918 57.308 243.865 64.665 A 93.728 93.728 0 0 0 242.285 71.094 L 238.477 70.02 A 50.585 50.585 0 0 1 238.983 65.695 Q 240.112 58.393 243.517 45.353 A 499.153 499.153 0 0 1 243.848 44.092 A 1683.51 1683.51 0 0 0 245.541 37.624 Q 248.788 25.119 249.644 20.828 A 46.372 46.372 0 0 0 249.707 20.508 A 13.574 13.574 0 0 1 250.798 20.555 Q 251.355 20.6 251.974 20.688 A 23.915 23.915 0 0 1 252.393 20.752 A 31.152 31.152 0 0 0 253.104 20.859 Q 253.858 20.963 254.377 20.988 A 6.399 6.399 0 0 0 254.687 20.996 Q 257.139 25.239 261.321 36.994 A 362.387 362.387 0 0 1 261.621 37.842 A 822.386 822.386 0 0 0 263.166 42.183 Q 266.043 50.191 267.28 52.978 A 23.606 23.606 0 0 0 267.48 53.418 A 371.777 371.777 0 0 1 271.094 43.567 Q 276.367 29.834 280.762 22.363 Z M 446.777 22.363 L 453.418 21.777 Q 458.301 34.961 463.379 70.898 Q 461.719 71.289 460.059 71.289 A 10.76 10.76 0 0 1 458.788 71.208 Q 457.8 71.091 456.641 70.801 A 67.236 67.236 0 0 1 455.923 67.603 Q 454.797 62.036 453.369 51.855 Q 451.615 39.355 450.234 33.563 A 51.301 51.301 0 0 0 450 32.617 A 68.034 68.034 0 0 0 447.4 37.341 Q 443.282 45.47 437.378 60.637 A 605.041 605.041 0 0 0 437.109 61.328 A 32.815 32.815 0 0 0 436.707 61.389 Q 436.002 61.498 434.717 61.719 A 33.328 33.328 0 0 1 433.914 61.847 Q 433.063 61.971 432.479 62.002 A 6.761 6.761 0 0 1 432.129 62.012 A 9.788 9.788 0 0 1 431.192 61.963 Q 430.734 61.919 430.223 61.835 A 19.171 19.171 0 0 1 429.59 61.719 A 159.896 159.896 0 0 1 428.714 59.415 Q 427.258 55.505 424.951 48.877 A 526.859 526.859 0 0 0 423.489 44.73 Q 422.061 40.733 420.956 37.891 A 120.847 120.847 0 0 0 420.02 35.547 A 534.726 534.726 0 0 0 415.771 46.777 Q 411.933 57.308 409.88 64.665 A 93.728 93.728 0 0 0 408.301 71.094 L 404.492 70.02 A 50.585 50.585 0 0 1 404.999 65.695 Q 406.128 58.393 409.532 45.353 A 499.153 499.153 0 0 1 409.863 44.092 A 1683.51 1683.51 0 0 0 411.557 37.624 Q 414.803 25.119 415.66 20.828 A 46.372 46.372 0 0 0 415.723 20.508 A 13.574 13.574 0 0 1 416.813 20.555 Q 417.371 20.6 417.989 20.688 A 23.915 23.915 0 0 1 418.408 20.752 A 31.152 31.152 0 0 0 419.119 20.859 Q 419.874 20.963 420.392 20.988 A 6.399 6.399 0 0 0 420.703 20.996 Q 423.155 25.239 427.336 36.994 A 362.387 362.387 0 0 1 427.637 37.842 A 822.386 822.386 0 0 0 429.182 42.183 Q 432.059 50.191 433.296 52.978 A 23.606 23.606 0 0 0 433.496 53.418 A 371.777 371.777 0 0 1 437.109 43.567 Q 442.383 29.834 446.777 22.363 Z M 197.266 21.191 L 201.758 20.41 Q 202.878 26.383 203.195 36.102 A 210.069 210.069 0 0 1 203.223 37.012 Q 203.514 47.317 204 52.396 A 73.966 73.966 0 0 0 204.004 52.441 A 67.902 67.902 0 0 1 204.94 51.107 Q 207.489 47.546 214.551 38.184 A 366.047 366.047 0 0 0 218.549 32.788 Q 224.023 25.244 226.367 20.996 A 73.326 73.326 0 0 1 227.118 20.863 Q 228.625 20.605 229.102 20.605 Q 230.79 20.605 231.548 21.979 A 3.59 3.59 0 0 1 231.689 22.266 Q 232.422 23.926 232.617 28.516 L 234.473 68.75 Q 233.594 71.68 231.055 71.68 Q 229.297 71.68 227.686 70.264 A 6.001 6.001 0 0 1 225.684 66.797 Q 225.775 63.781 226.166 52.6 A 19254.194 19254.194 0 0 1 226.221 51.025 A 2321.63 2321.63 0 0 1 226.431 45.206 Q 226.702 38.007 226.906 34.083 A 254.082 254.082 0 0 1 226.953 33.203 Q 214.363 47.56 207.99 56.865 A 78.433 78.433 0 0 0 204.492 62.402 A 37.615 37.615 0 0 0 204.511 63.545 Q 204.55 64.826 204.67 66.549 A 123.79 123.79 0 0 0 204.687 66.797 A 6.141 6.141 0 0 1 204.154 68.104 Q 203.184 69.824 201.27 69.824 Q 199.512 69.824 197.9 68.408 A 6.001 6.001 0 0 1 195.898 64.941 A 1391.785 1391.785 0 0 0 196.054 60.529 Q 196.301 53.223 196.631 41.797 Q 197.07 26.563 197.266 21.191 Z M 468.75 21.191 L 473.242 20.41 Q 474.362 26.383 474.679 36.102 A 210.069 210.069 0 0 1 474.707 37.012 Q 474.999 47.317 475.484 52.396 A 73.966 73.966 0 0 0 475.488 52.441 A 67.902 67.902 0 0 1 476.424 51.107 Q 478.973 47.546 486.035 38.184 A 366.047 366.047 0 0 0 490.033 32.788 Q 495.508 25.244 497.852 20.996 A 73.326 73.326 0 0 1 498.602 20.863 Q 500.11 20.605 500.586 20.605 Q 502.274 20.605 503.032 21.979 A 3.59 3.59 0 0 1 503.174 22.266 Q 503.906 23.926 504.102 28.516 L 505.957 68.75 Q 505.078 71.68 502.539 71.68 Q 500.781 71.68 499.17 70.264 A 6.001 6.001 0 0 1 497.168 66.797 Q 497.259 63.781 497.65 52.6 A 19254.194 19254.194 0 0 1 497.705 51.025 A 2321.63 2321.63 0 0 1 497.916 45.206 Q 498.186 38.007 498.39 34.083 A 254.082 254.082 0 0 1 498.438 33.203 Q 485.848 47.56 479.475 56.865 A 78.433 78.433 0 0 0 475.977 62.402 A 37.615 37.615 0 0 0 475.996 63.545 Q 476.035 64.826 476.154 66.549 A 123.79 123.79 0 0 0 476.172 66.797 A 6.141 6.141 0 0 1 475.639 68.104 Q 474.668 69.824 472.754 69.824 Q 470.996 69.824 469.385 68.408 A 6.001 6.001 0 0 1 467.383 64.941 A 1391.785 1391.785 0 0 0 467.538 60.529 Q 467.786 53.223 468.115 41.797 Q 468.555 26.563 468.75 21.191 Z M 37.012 0.586 L 37.988 4.98 Q 34.032 5.25 24.609 5.81 A 5520.41 5520.41 0 0 1 22.949 5.908 A 1341.876 1341.876 0 0 0 17.99 6.21 Q 11.135 6.64 7.91 6.934 A 463.379 463.379 0 0 1 8.044 12.354 Q 8.228 21.655 8.301 37.988 A 2231.753 2231.753 0 0 0 8.368 48.151 Q 8.496 62.305 8.789 69.922 A 6.141 6.141 0 0 1 8.256 71.229 Q 7.285 72.949 5.371 72.949 A 4.407 4.407 0 0 1 3.186 72.352 A 6.516 6.516 0 0 1 2.002 71.484 A 6.227 6.227 0 0 1 0 67.969 Q 1.074 55.664 1.367 10.449 A 163.362 163.362 0 0 1 1.37 9.509 Q 1.379 7.935 1.416 5.371 A 709.577 709.577 0 0 0 1.437 3.754 Q 1.456 2.18 1.462 0.996 A 200.867 200.867 0 0 0 1.465 0 A 191.869 191.869 0 0 0 12.109 0.293 A 268.381 268.381 0 0 0 13.318 0.29 Q 15.332 0.281 18.555 0.244 A 1245.201 1245.201 0 0 1 20.569 0.223 Q 23.389 0.195 25 0.195 A 194.891 194.891 0 0 1 31.323 0.293 A 142.395 142.395 0 0 1 37.012 0.586 Z M 371.875 28.32 L 369.922 23.34 A 16.861 16.861 0 0 1 373.736 20.507 A 21.649 21.649 0 0 1 376.367 19.287 A 22.363 22.363 0 0 1 381.452 17.952 A 19.577 19.577 0 0 1 384.082 17.773 A 13.614 13.614 0 0 1 397.079 26.06 Q 400.107 32.176 400.52 42.808 A 89.548 89.548 0 0 1 400.586 46.289 Q 400.586 50.195 400.146 57.813 A 436.575 436.575 0 0 0 399.954 61.383 Q 399.784 64.82 399.731 67.244 A 91.819 91.819 0 0 0 399.707 69.238 A 6.785 6.785 0 0 1 399.278 70.455 Q 398.975 71.091 398.564 71.504 A 2.552 2.552 0 0 1 396.68 72.266 A 3.571 3.571 0 0 1 394.621 71.596 Q 394.112 71.246 393.633 70.712 A 7.409 7.409 0 0 1 393.457 70.508 A 6.352 6.352 0 0 1 392.303 68.499 A 5.807 5.807 0 0 1 391.992 66.602 A 7.656 7.656 0 0 1 391.998 66.284 Q 392.017 65.845 392.09 65.625 Q 386.035 71.484 379.199 71.484 A 12.53 12.53 0 0 1 370.166 67.725 A 12.253 12.253 0 0 1 366.311 58.845 A 14.803 14.803 0 0 1 366.309 58.594 A 22.203 22.203 0 0 1 371.164 44.757 A 30.083 30.083 0 0 1 373.389 42.188 Q 380.469 34.863 389.453 34.863 A 6.293 6.293 0 0 1 390.234 34.912 A 12.603 12.603 0 0 1 390.548 34.956 Q 390.687 34.977 390.841 35.002 A 23.857 23.857 0 0 1 391.162 35.059 Q 391.605 35.139 391.882 35.153 A 2.173 2.173 0 0 0 391.992 35.156 A 23.579 23.579 0 0 0 391.365 30.986 Q 389.535 23.77 382.983 23.731 A 11.997 11.997 0 0 0 382.91 23.73 Q 379.422 23.73 375.286 26.073 A 32.619 32.619 0 0 0 371.875 28.32 Z M 362.207 22.07 L 361.719 26.27 Q 358.578 25.821 356.125 25.716 A 33.625 33.625 0 0 0 354.688 25.684 A 18.412 18.412 0 0 0 349.419 26.405 A 14.732 14.732 0 0 0 343.555 29.736 Q 339.16 33.789 337.549 39.307 A 39.613 39.613 0 0 0 336.203 46.289 A 50.572 50.572 0 0 0 335.938 51.562 A 42.739 42.739 0 0 0 336.023 54.342 Q 336.108 55.646 336.278 56.802 A 25.383 25.383 0 0 0 336.328 57.129 Q 336.719 59.57 337.744 61.914 Q 338.77 64.258 340.967 65.576 A 8.898 8.898 0 0 0 343.72 66.633 Q 344.855 66.874 346.164 66.893 A 15.497 15.497 0 0 0 346.387 66.895 A 29.229 29.229 0 0 0 349.618 66.698 Q 352.966 66.324 357.324 65.234 Q 359.375 64.453 360.547 64.453 Q 362.891 64.453 363.379 69.922 A 62.577 62.577 0 0 1 355.601 71.885 A 45.577 45.577 0 0 1 347.461 72.656 A 33.893 33.893 0 0 1 342.569 72.33 Q 335.876 71.35 333.057 67.432 Q 329.297 62.207 329.297 50.488 A 85.213 85.213 0 0 1 329.474 44.846 Q 329.702 41.414 330.225 38.525 A 32.957 32.957 0 0 1 333.496 28.955 Q 335.84 24.512 340.283 22.168 A 19.302 19.302 0 0 1 345.398 20.374 Q 348.05 19.824 351.172 19.824 A 37.494 37.494 0 0 1 355.161 20.022 Q 359.37 20.474 362.01 21.957 A 10.821 10.821 0 0 1 362.207 22.07 Z M 79.297 26.563 L 60.352 25.684 L 59.473 21.387 A 1643.987 1643.987 0 0 1 66.956 20.959 Q 78.961 20.298 98.603 19.34 A 10618.126 10618.126 0 0 1 100.684 19.238 Q 103.027 19.336 104.688 20.996 Q 106.348 22.656 106.348 24.512 A 3.138 3.138 0 0 1 105.966 26.095 Q 105.127 27.563 102.441 27.832 L 84.18 26.953 Q 84.668 34.277 84.717 48.291 A 1175.813 1175.813 0 0 0 84.756 54.825 Q 84.839 63.916 85.059 68.75 A 5.475 5.475 0 0 1 84.495 70.022 Q 83.605 71.454 81.944 71.572 A 4.295 4.295 0 0 1 81.641 71.582 Q 79.98 71.582 78.418 70.215 Q 76.855 68.848 76.465 66.895 A 1911.251 1911.251 0 0 1 77.155 55.365 Q 78.198 38.794 79.297 26.563 Z M 151.27 67.383 L 153.418 20.41 Q 168.555 17.188 171.875 17.188 Q 183.256 17.188 184.739 25.682 A 15.919 15.919 0 0 1 184.961 28.418 Q 184.961 32.324 183.643 35.986 Q 182.435 39.342 180.694 40.606 A 4.403 4.403 0 0 1 180.371 40.82 A 17.988 17.988 0 0 1 185.303 45.67 Q 187.778 49.372 187.972 54.244 A 21.029 21.029 0 0 1 187.988 55.078 A 21.083 21.083 0 0 1 187.263 60.763 A 15.278 15.278 0 0 1 182.373 68.457 A 19.39 19.39 0 0 1 174.023 72.555 Q 171.103 73.231 167.687 73.242 A 35.125 35.125 0 0 1 167.578 73.242 Q 156.641 73.242 151.27 67.383 Z M 24.133 45.581 A 43.48 43.48 0 0 0 23.926 49.707 A 32.352 32.352 0 0 0 24.323 54.867 A 24.055 24.055 0 0 0 28.809 65.674 A 18.562 18.562 0 0 0 35.939 71.457 A 23.018 23.018 0 0 0 42.676 73.34 A 18.964 18.964 0 0 0 43.281 73.282 A 15.771 15.771 0 0 0 51.221 70.166 Q 54.883 67.383 56.836 63.184 A 40.044 40.044 0 0 0 59.717 54.639 Q 60.645 50.293 60.645 45.898 Q 60.645 35.547 54.98 27.1 A 23.682 23.682 0 0 0 53.022 24.555 A 16.778 16.778 0 0 0 39.941 18.652 A 9.802 9.802 0 0 0 35.19 19.843 A 11.903 11.903 0 0 0 32.227 22.168 Q 28.906 25.684 27.246 30.957 A 88.092 88.092 0 0 0 26.118 34.843 A 72.5 72.5 0 0 0 24.756 41.016 A 70.24 70.24 0 0 0 24.73 41.165 Q 24.334 43.476 24.133 45.581 Z M 106.848 45.581 A 43.48 43.48 0 0 0 106.641 49.707 A 32.352 32.352 0 0 0 107.038 54.867 A 24.055 24.055 0 0 0 111.523 65.674 A 18.562 18.562 0 0 0 118.654 71.457 A 23.018 23.018 0 0 0 125.391 73.34 A 18.964 18.964 0 0 0 125.996 73.282 A 15.771 15.771 0 0 0 133.936 70.166 Q 137.598 67.383 139.551 63.184 A 40.044 40.044 0 0 0 142.432 54.639 Q 143.359 50.293 143.359 45.898 Q 143.359 35.547 137.695 27.1 A 23.682 23.682 0 0 0 135.737 24.555 A 16.778 16.778 0 0 0 122.656 18.652 A 9.802 9.802 0 0 0 117.905 19.843 A 11.903 11.903 0 0 0 114.941 22.168 Q 111.621 25.684 109.961 30.957 A 88.092 88.092 0 0 0 108.833 34.843 A 72.5 72.5 0 0 0 107.471 41.016 A 70.24 70.24 0 0 0 107.445 41.165 Q 107.049 43.476 106.848 45.581 Z M 35.26 28.831 A 23.421 23.421 0 0 0 34.766 29.98 Q 32.422 35.84 31.738 41.357 A 103.649 103.649 0 0 0 31.322 45.31 Q 31.055 48.45 31.055 51.074 Q 31.055 56.543 34.424 61.182 A 15.162 15.162 0 0 0 36.441 63.476 Q 37.763 64.684 39.196 65.269 A 7.325 7.325 0 0 0 41.992 65.82 A 7.449 7.449 0 0 0 46.664 64.167 A 10.066 10.066 0 0 0 47.461 63.477 A 16.081 16.081 0 0 0 50.65 59.129 A 19.325 19.325 0 0 0 51.318 57.666 Q 52.734 54.199 53.467 50.684 Q 54.199 47.168 54.199 44.434 A 29.981 29.981 0 0 0 53.351 37.157 A 24.03 24.03 0 0 0 50.586 30.469 A 15.296 15.296 0 0 0 47.331 26.605 A 12.783 12.783 0 0 0 40.527 23.73 Q 37.461 24.081 35.26 28.831 Z M 117.975 28.831 A 23.421 23.421 0 0 0 117.48 29.98 Q 115.137 35.84 114.453 41.357 A 103.649 103.649 0 0 0 114.037 45.31 Q 113.77 48.45 113.77 51.074 Q 113.77 56.543 117.139 61.182 A 15.162 15.162 0 0 0 119.156 63.476 Q 120.478 64.684 121.911 65.269 A 7.325 7.325 0 0 0 124.707 65.82 A 7.449 7.449 0 0 0 129.379 64.167 A 10.066 10.066 0 0 0 130.176 63.477 A 16.081 16.081 0 0 0 133.365 59.129 A 19.325 19.325 0 0 0 134.033 57.666 Q 135.449 54.199 136.182 50.684 Q 136.914 47.168 136.914 44.434 A 29.981 29.981 0 0 0 136.066 37.157 A 24.03 24.03 0 0 0 133.301 30.469 A 15.296 15.296 0 0 0 130.046 26.605 A 12.783 12.783 0 0 0 123.242 23.73 Q 120.176 24.081 117.975 28.831 Z M 158.984 44.922 L 159.863 64.746 A 11.848 11.848 0 0 0 163.498 65.798 A 15.074 15.074 0 0 0 165.43 65.918 A 18.147 18.147 0 0 0 176.563 62.109 A 15.689 15.689 0 0 0 179.24 59.605 A 9.762 9.762 0 0 0 181.641 53.223 A 8.918 8.918 0 0 0 180.005 48.106 A 12.239 12.239 0 0 0 178.906 46.729 A 8.942 8.942 0 0 0 172.379 43.757 A 11.547 11.547 0 0 0 171.973 43.75 A 22.653 22.653 0 0 0 170.772 43.791 Q 167.808 43.956 160.307 44.776 A 774.745 774.745 0 0 0 158.984 44.922 Z M 392.285 40.332 L 391.504 40.332 A 18.523 18.523 0 0 0 380.488 44.178 A 24.182 24.182 0 0 0 378.857 45.508 A 17.613 17.613 0 0 0 374.952 50.362 A 15.566 15.566 0 0 0 373.145 57.813 A 8.3 8.3 0 0 0 373.412 59.978 A 6.053 6.053 0 0 0 375.049 62.793 A 6.398 6.398 0 0 0 379.688 64.648 A 9.554 9.554 0 0 0 382.337 64.218 Q 384.969 63.449 388.555 61.306 A 65.418 65.418 0 0 0 392.285 58.887 Q 392.435 53.653 392.47 50.365 A 172.988 172.988 0 0 0 392.48 48.535 A 116.754 116.754 0 0 0 392.468 46.924 Q 392.443 45.111 392.366 42.675 A 437.039 437.039 0 0 0 392.285 40.332 Z M 158.008 24.805 L 158.691 39.844 A 20.723 20.723 0 0 1 159.521 39.752 Q 160.913 39.624 163.184 39.551 Q 166.144 39.455 167.984 39.126 A 16.035 16.035 0 0 0 168.066 39.111 Q 169.922 38.77 172.168 37.646 Q 174.414 36.523 175.732 33.691 Q 177.051 30.859 177.539 26.27 A 3.754 3.754 0 0 0 175.335 23.968 Q 174.566 23.634 173.555 23.478 A 12.965 12.965 0 0 0 171.582 23.34 A 21.899 21.899 0 0 0 170.3 23.383 Q 168.832 23.47 166.703 23.734 A 120.174 120.174 0 0 0 164.551 24.023 A 243.331 243.331 0 0 1 162.474 24.312 Q 159.902 24.656 158.536 24.768 A 20.65 20.65 0 0 1 158.008 24.805 Z" vector-effect="non-scaling-stroke"/></g></svg>