<svg width="18" height="20" viewBox="0 0 18 20" fill="none" xmlns="http://www.w3.org/2000/svg">
<path d="M14.8438 10.268V8.39844C14.8438 5.67102 13.0309 3.35934 10.5469 2.6043V1.75781C10.5469 0.788555 9.75837 0 8.78911 0C7.81985 0 7.0313 0.788555 7.0313 1.75781V2.6043C4.54731 3.35934 2.73442 5.67098 2.73442 8.39844V10.268C2.73442 12.6638 1.82122 14.9355 0.163053 16.6648C0.000553466 16.8342 -0.0451106 17.0843 0.0469987 17.3002C0.139108 17.5161 0.351218 17.6562 0.585983 17.6562H5.91837C6.19055 18.9919 7.3743 20 8.78911 20C10.204 20 11.3876 18.9919 11.6599 17.6562H16.9922C17.227 17.6562 17.4391 17.5161 17.5312 17.3002C17.6233 17.0843 17.5776 16.8342 17.4152 16.6648C15.757 14.9355 14.8438 12.6638 14.8438 10.268ZM8.20317 1.75781C8.20317 1.43473 8.46602 1.17188 8.78911 1.17188C9.11219 1.17188 9.37505 1.43473 9.37505 1.75781V2.37219C9.18219 2.35359 8.98676 2.34375 8.78911 2.34375C8.59145 2.34375 8.39602 2.35359 8.20317 2.37219V1.75781ZM8.78911 18.8281C8.02524 18.8281 7.37395 18.3382 7.13208 17.6562H10.4461C10.2043 18.3382 9.55298 18.8281 8.78911 18.8281ZM1.84887 16.4844C3.18329 14.6956 3.9063 12.5309 3.9063 10.268V8.39844C3.9063 5.70605 6.09673 3.51562 8.78911 3.51562C11.4815 3.51562 13.6719 5.70605 13.6719 8.39844V10.268C13.6719 12.5309 14.3949 14.6956 15.7294 16.4844H1.84887Z" fill="#EE5126"/>
<path d="M16.4065 8.39841C16.4065 8.72201 16.6689 8.98435 16.9925 8.98435C17.3161 8.98435 17.5784 8.72201 17.5784 8.39841C17.5784 6.05076 16.6642 3.84361 15.0042 2.18357C14.7754 1.95478 14.4044 1.95474 14.1755 2.18357C13.9467 2.4124 13.9467 2.78337 14.1755 3.0122C15.6142 4.45091 16.4065 6.36376 16.4065 8.39841Z" fill="#EE5126"/>
<path d="M0.585938 8.98433C0.909531 8.98433 1.17188 8.72198 1.17188 8.39839C1.17188 6.36378 1.96422 4.45093 3.40289 3.01222C3.63172 2.78339 3.63172 2.41241 3.40289 2.18358C3.1741 1.95476 2.80309 1.95476 2.57426 2.18358C0.914219 3.84362 0 6.05073 0 8.39839C0 8.72198 0.262344 8.98433 0.585938 8.98433Z" fill="#EE5126"/>
</svg>
