<svg width="20" height="14" viewBox="0 0 20 14" fill="none" xmlns="http://www.w3.org/2000/svg">
<path d="M17.9166 0H2.08332C0.934998 0 0 0.934998 0 2.08336V11.25C0 12.3983 0.934998 13.3333 2.08332 13.3333H17.9166C19.0649 13.3333 19.9999 12.3983 19.9999 11.25V2.08336C20 0.934998 19.065 0 17.9166 0ZM19.1666 11.25C19.1666 11.9392 18.6058 12.5 17.9166 12.5H2.08332C1.39414 12.5 0.833319 11.9392 0.833319 11.25V2.08336C0.833319 1.39418 1.39414 0.833358 2.08332 0.833358H17.9166C18.6058 0.833358 19.1666 1.39418 19.1666 2.08336V11.25H19.1666Z" fill="black"/>
<path d="M19.5833 2.5H0.416679C0.186679 2.5 0 2.68668 0 2.91668V5.41667C0 5.64667 0.186679 5.83335 0.416679 5.83335H19.5833C19.8133 5.83335 20 5.64667 20 5.41667V2.91668C20 2.68668 19.8133 2.5 19.5833 2.5ZM19.1666 5H0.833319V3.33332H19.1666V5H19.1666Z" fill="black"/>
<path d="M7.91667 8.33337H2.91668C2.68668 8.33337 2.5 8.52005 2.5 8.75005C2.5 8.98005 2.68668 9.16669 2.91668 9.16669H7.91667C8.14667 9.16669 8.33335 8.98001 8.33335 8.75001C8.33335 8.52001 8.14667 8.33337 7.91667 8.33337Z" fill="black"/>
<path d="M7.91667 10H2.91668C2.68668 10 2.5 10.1867 2.5 10.4167C2.5 10.6467 2.68668 10.8334 2.91668 10.8334H7.91667C8.14667 10.8334 8.33335 10.6467 8.33335 10.4167C8.33331 10.1867 8.14667 10 7.91667 10Z" fill="black"/>
<path d="M16.2498 7.5H15.4165C14.7273 7.5 14.1665 8.06082 14.1665 8.75V9.58332C14.1665 10.2725 14.7273 10.8333 15.4165 10.8333H16.2498C16.939 10.8333 17.4998 10.2725 17.4998 9.58332V8.75C17.4998 8.06086 16.939 7.5 16.2498 7.5ZM16.6665 9.58335C16.6665 9.81335 16.4798 10 16.2498 10H15.4165C15.1865 10 14.9998 9.81335 14.9998 9.58335V8.75004C14.9998 8.52004 15.1865 8.33336 15.4165 8.33336H16.2498C16.4798 8.33336 16.6665 8.52004 16.6665 8.75004V9.58335Z" fill="black"/>
</svg>
