<svg width="18" height="20" viewBox="0 0 18 20" fill="none" xmlns="http://www.w3.org/2000/svg">
<path d="M8.43368 10.7766C8.45439 10.7766 8.4751 10.7766 8.49995 10.7766C8.50823 10.7766 8.51651 10.7766 8.5248 10.7766C8.53722 10.7766 8.55379 10.7766 8.56621 10.7766C9.77972 10.7559 10.7613 10.3293 11.4861 9.51336C13.0806 7.71588 12.8155 4.6345 12.7865 4.34044C12.683 2.13295 11.6393 1.07683 10.7779 0.583972C10.1359 0.215366 9.38626 0.0165666 8.54965 0H8.52066C8.51651 0 8.50823 0 8.50409 0H8.47924C8.01952 0 7.11664 0.0745496 6.25104 0.567405C5.38129 1.06026 4.32103 2.11638 4.21749 4.34044C4.1885 4.6345 3.92343 7.71588 5.51796 9.51336C6.23861 10.3293 7.22018 10.7559 8.43368 10.7766ZM5.32331 4.44398C5.32331 4.43156 5.32745 4.41914 5.32745 4.41085C5.46412 1.44129 7.57222 1.12239 8.4751 1.12239H8.49166C8.49995 1.12239 8.51237 1.12239 8.5248 1.12239C9.64304 1.14724 11.5441 1.60282 11.6724 4.41085C11.6724 4.42328 11.6724 4.4357 11.6766 4.44398C11.6807 4.47298 11.9706 7.28929 10.6536 8.772C10.1318 9.36012 9.43596 9.65003 8.52066 9.65832C8.51237 9.65832 8.50823 9.65832 8.49995 9.65832C8.49166 9.65832 8.48752 9.65832 8.47924 9.65832C7.56808 9.65003 6.86814 9.36012 6.35043 8.772C5.03753 7.29758 5.31917 4.46883 5.32331 4.44398Z" fill="#EE5126"/>
<path d="M17.0109 15.8873C17.0109 15.8832 17.0109 15.879 17.0109 15.8749C17.0109 15.8418 17.0067 15.8086 17.0067 15.7713C16.9819 14.9513 16.928 13.0337 15.1306 12.4208C15.1181 12.4166 15.1016 12.4125 15.0891 12.4083C13.2213 11.932 11.6681 10.8552 11.6516 10.8428C11.3989 10.6647 11.051 10.7268 10.8729 10.9795C10.6949 11.2321 10.757 11.58 11.0096 11.7581C11.08 11.8078 12.7284 12.955 14.7909 13.4852C15.7559 13.8289 15.8636 14.8602 15.8926 15.8045C15.8926 15.8418 15.8926 15.8749 15.8968 15.908C15.9009 16.2808 15.8761 16.8565 15.8098 17.1878C15.1388 17.5688 12.5089 18.8859 8.50807 18.8859C4.5238 18.8859 1.87729 17.5647 1.2022 17.1837C1.13594 16.8523 1.10695 16.2766 1.11523 15.9039C1.11523 15.8707 1.11937 15.8376 1.11937 15.8003C1.14836 14.856 1.25605 13.8248 2.22105 13.481C4.28359 12.9509 5.93196 11.7995 6.00237 11.754C6.25501 11.5759 6.31714 11.228 6.13904 10.9753C5.96095 10.7227 5.61306 10.6606 5.36042 10.8387C5.34385 10.8511 3.79902 11.9279 1.92285 12.4042C1.90628 12.4083 1.89386 12.4125 1.88143 12.4166C0.0839602 13.0337 0.0301188 14.9513 0.00526895 15.7672C0.00526895 15.8045 0.00526885 15.8376 0.00112721 15.8708C0.00112721 15.8749 0.00112721 15.879 0.00112721 15.8832C-0.00301444 16.0985 -0.00715599 17.2044 0.212351 17.7593C0.253768 17.867 0.328317 17.9581 0.427717 18.0203C0.551966 18.1031 3.52981 20 8.51221 20C13.4946 20 16.4724 18.099 16.5967 18.0203C16.692 17.9581 16.7706 17.867 16.8121 17.7593C17.0191 17.2085 17.015 16.1027 17.0109 15.8873Z" fill="#EE5126"/>
</svg>
