<svg width="16" height="18" viewBox="0 0 16 18" fill="none" xmlns="http://www.w3.org/2000/svg">
<path d="M7.39503 8.67065C8.58622 8.67065 9.6177 8.24342 10.4605 7.4005C11.3033 6.55771 11.7305 5.52651 11.7305 4.33519C11.7305 3.14427 11.3033 2.11294 10.4603 1.26988C9.61742 0.427229 8.58608 0 7.39503 0C6.20371 0 5.17251 0.427229 4.32972 1.27001C3.48694 2.1128 3.05957 3.14414 3.05957 4.33519C3.05957 5.52651 3.48694 6.55785 4.32986 7.40064C5.17278 8.24328 6.20412 8.67065 7.39503 8.67065Z" fill="#575757"/>
<path d="M14.981 13.8408C14.9567 13.4901 14.9076 13.1075 14.8352 12.7035C14.7621 12.2964 14.6681 11.9117 14.5555 11.56C14.4391 11.1964 14.2809 10.8375 14.0854 10.4935C13.8824 10.1364 13.644 9.8255 13.3765 9.56965C13.0968 9.302 12.7543 9.08681 12.3582 8.92984C11.9635 8.7737 11.5261 8.6946 11.0582 8.6946C10.8745 8.6946 10.6968 8.76999 10.3536 8.99342C10.1424 9.13116 9.89535 9.29046 9.61959 9.46666C9.3838 9.61689 9.06437 9.75766 8.66983 9.8851C8.28489 10.0097 7.89406 10.0728 7.5083 10.0728C7.12255 10.0728 6.73185 10.0097 6.3465 9.8851C5.95237 9.75779 5.63294 9.61703 5.39742 9.46679C5.12428 9.29225 4.87709 9.13295 4.66272 8.99328C4.31994 8.76985 4.1421 8.69446 3.95836 8.69446C3.49034 8.69446 3.05309 8.7737 2.65854 8.92998C2.26276 9.08667 1.92013 9.30186 1.64012 9.56979C1.37274 9.82577 1.1342 10.1365 0.9315 10.4935C0.736081 10.8375 0.577879 11.1963 0.461424 11.5601C0.348952 11.9118 0.254882 12.2964 0.181823 12.7035C0.109451 13.107 0.0602872 13.4897 0.0359801 13.8413C0.0120849 14.1857 0 14.5431 0 14.9042C0 15.8438 0.29869 16.6044 0.887692 17.1654C1.46942 17.719 2.23914 17.9998 3.17517 17.9998H11.8423C12.7783 17.9998 13.5477 17.7191 14.1296 17.1654C14.7187 16.6049 15.0174 15.8441 15.0174 14.904C15.0173 14.5414 15.0051 14.1836 14.981 13.8408Z" fill="#575757"/>
</svg>
